<svg width="189" height="56" viewBox="0 0 189 56" fill="none" xmlns="http://www.w3.org/2000/svg">
<g filter="url(#filter0_d_73_2)">
<path d="M2 27C2 12.6406 13.6406 1 28 1H161C175.359 1 187 12.6406 187 27C187 41.3594 175.359 53 161 53H28C13.6406 53 2 41.3594 2 27Z" fill="#FDB0AB"/>
</g>
<path d="M46.6748 21.3359V32H45.2832V21.3359H46.6748ZM50.1025 21.3359V22.4932H41.8628V21.3359H50.1025ZM55.0464 22.2808L51.5161 32H50.0732L54.1382 21.3359H55.0684L55.0464 22.2808ZM58.0054 32L54.4678 22.2808L54.4458 21.3359H55.376L59.4556 32H58.0054ZM57.8223 28.0522V29.2095H51.8311V28.0522H57.8223ZM62.2974 21.3359V32H60.8838V21.3359H62.2974ZM68.7354 21.3359L64.3042 26.3091L61.814 28.8945L61.5796 27.3857L63.4546 25.3203L67.0361 21.3359H68.7354ZM67.373 32L63.4253 26.7998L64.2676 25.6792L69.0576 32H67.373ZM77.0776 30.8501V32H71.4307V30.8501H77.0776ZM71.7163 21.3359V32H70.3027V21.3359H71.7163ZM76.3306 25.9209V27.0708H71.4307V25.9209H76.3306ZM77.0044 21.3359V22.4932H71.4307V21.3359H77.0044ZM88.9868 28.6089H90.3931C90.3198 29.2827 90.127 29.8857 89.8145 30.418C89.502 30.9502 89.0601 31.3726 88.4888 31.6851C87.9175 31.9927 87.2046 32.1465 86.3501 32.1465C85.7251 32.1465 85.1562 32.0293 84.6436 31.7949C84.1357 31.5605 83.6987 31.2285 83.3325 30.7988C82.9663 30.3643 82.6831 29.8442 82.4829 29.2388C82.2876 28.6284 82.1899 27.9497 82.1899 27.2026V26.1406C82.1899 25.3936 82.2876 24.7173 82.4829 24.1118C82.6831 23.5015 82.9688 22.979 83.3398 22.5444C83.7158 22.1099 84.1675 21.7754 84.6948 21.541C85.2222 21.3066 85.8154 21.1895 86.4746 21.1895C87.2803 21.1895 87.9614 21.3408 88.5181 21.6436C89.0747 21.9463 89.5068 22.3662 89.8145 22.9033C90.127 23.4355 90.3198 24.0532 90.3931 24.7563H88.9868C88.9185 24.2583 88.7915 23.8311 88.606 23.4746C88.4204 23.1133 88.1567 22.835 87.8149 22.6396C87.4731 22.4443 87.0264 22.3467 86.4746 22.3467C86.001 22.3467 85.5835 22.437 85.2222 22.6177C84.8657 22.7983 84.5654 23.0547 84.3213 23.3867C84.082 23.7188 83.9014 24.1167 83.7793 24.5806C83.6572 25.0444 83.5962 25.5596 83.5962 26.126V27.2026C83.5962 27.7251 83.6499 28.2158 83.7573 28.6748C83.8696 29.1338 84.0381 29.5366 84.2627 29.8833C84.4873 30.23 84.7729 30.5034 85.1196 30.7036C85.4663 30.8989 85.8765 30.9966 86.3501 30.9966C86.9507 30.9966 87.4292 30.9014 87.7856 30.7109C88.1421 30.5205 88.4106 30.2471 88.5913 29.8906C88.7769 29.5342 88.9087 29.1069 88.9868 28.6089ZM100.53 26.3311V27.0049C100.53 27.8057 100.43 28.5234 100.229 29.1582C100.029 29.793 99.7412 30.3325 99.3652 30.7769C98.9893 31.2212 98.5376 31.5605 98.0103 31.7949C97.4878 32.0293 96.9019 32.1465 96.2524 32.1465C95.6226 32.1465 95.0439 32.0293 94.5166 31.7949C93.9941 31.5605 93.54 31.2212 93.1543 30.7769C92.7734 30.3325 92.478 29.793 92.2681 29.1582C92.0581 28.5234 91.9531 27.8057 91.9531 27.0049V26.3311C91.9531 25.5303 92.0557 24.8149 92.2607 24.1851C92.4707 23.5503 92.7661 23.0107 93.147 22.5664C93.5278 22.1172 93.9795 21.7754 94.502 21.541C95.0293 21.3066 95.6079 21.1895 96.2378 21.1895C96.8872 21.1895 97.4731 21.3066 97.9956 21.541C98.5229 21.7754 98.9746 22.1172 99.3506 22.5664C99.7314 23.0107 100.022 23.5503 100.222 24.1851C100.427 24.8149 100.53 25.5303 100.53 26.3311ZM99.1309 27.0049V26.3164C99.1309 25.6816 99.0649 25.1201 98.9331 24.6318C98.8062 24.1436 98.6182 23.7334 98.3691 23.4014C98.1201 23.0693 97.8149 22.8179 97.4536 22.647C97.0972 22.4761 96.6919 22.3906 96.2378 22.3906C95.7983 22.3906 95.4004 22.4761 95.0439 22.647C94.6924 22.8179 94.3896 23.0693 94.1357 23.4014C93.8867 23.7334 93.6938 24.1436 93.5571 24.6318C93.4204 25.1201 93.3521 25.6816 93.3521 26.3164V27.0049C93.3521 27.6445 93.4204 28.2109 93.5571 28.7041C93.6938 29.1924 93.8892 29.605 94.1431 29.9419C94.4019 30.2739 94.707 30.5254 95.0586 30.6963C95.415 30.8672 95.813 30.9526 96.2524 30.9526C96.7114 30.9526 97.1191 30.8672 97.4756 30.6963C97.832 30.5254 98.1323 30.2739 98.3765 29.9419C98.6255 29.605 98.8135 29.1924 98.9404 28.7041C99.0674 28.2109 99.1309 27.6445 99.1309 27.0049ZM110.85 21.3359V32H109.429L104.06 23.7749V32H102.646V21.3359H104.06L109.451 29.583V21.3359H110.85ZM117.075 21.3359V32H115.684V21.3359H117.075ZM120.503 21.3359V22.4932H112.263V21.3359H120.503ZM122.085 21.3359H125.615C126.416 21.3359 127.092 21.458 127.644 21.7021C128.201 21.9463 128.623 22.3076 128.911 22.7861C129.204 23.2598 129.351 23.8433 129.351 24.5366C129.351 25.0249 129.25 25.4717 129.05 25.877C128.855 26.2773 128.572 26.6191 128.201 26.9023C127.834 27.1807 127.395 27.3882 126.882 27.5249L126.487 27.6787H123.169L123.154 26.5288H125.659C126.167 26.5288 126.589 26.4409 126.926 26.2651C127.263 26.0845 127.517 25.8428 127.688 25.54C127.859 25.2373 127.944 24.9028 127.944 24.5366C127.944 24.1265 127.864 23.7676 127.703 23.46C127.542 23.1523 127.288 22.9155 126.941 22.7495C126.599 22.5786 126.157 22.4932 125.615 22.4932H123.499V32H122.085V21.3359ZM128.318 32L125.725 27.166L127.197 27.1587L129.827 31.9121V32H128.318ZM139.539 26.3311V27.0049C139.539 27.8057 139.438 28.5234 139.238 29.1582C139.038 29.793 138.75 30.3325 138.374 30.7769C137.998 31.2212 137.546 31.5605 137.019 31.7949C136.497 32.0293 135.911 32.1465 135.261 32.1465C134.631 32.1465 134.053 32.0293 133.525 31.7949C133.003 31.5605 132.549 31.2212 132.163 30.7769C131.782 30.3325 131.487 29.793 131.277 29.1582C131.067 28.5234 130.962 27.8057 130.962 27.0049V26.3311C130.962 25.5303 131.064 24.8149 131.27 24.1851C131.479 23.5503 131.775 23.0107 132.156 22.5664C132.537 22.1172 132.988 21.7754 133.511 21.541C134.038 21.3066 134.617 21.1895 135.247 21.1895C135.896 21.1895 136.482 21.3066 137.004 21.541C137.532 21.7754 137.983 22.1172 138.359 22.5664C138.74 23.0107 139.031 23.5503 139.231 24.1851C139.436 24.8149 139.539 25.5303 139.539 26.3311ZM138.14 27.0049V26.3164C138.14 25.6816 138.074 25.1201 137.942 24.6318C137.815 24.1436 137.627 23.7334 137.378 23.4014C137.129 23.0693 136.824 22.8179 136.462 22.647C136.106 22.4761 135.701 22.3906 135.247 22.3906C134.807 22.3906 134.409 22.4761 134.053 22.647C133.701 22.8179 133.398 23.0693 133.145 23.4014C132.896 23.7334 132.703 24.1436 132.566 24.6318C132.429 25.1201 132.361 25.6816 132.361 26.3164V27.0049C132.361 27.6445 132.429 28.2109 132.566 28.7041C132.703 29.1924 132.898 29.605 133.152 29.9419C133.411 30.2739 133.716 30.5254 134.067 30.6963C134.424 30.8672 134.822 30.9526 135.261 30.9526C135.72 30.9526 136.128 30.8672 136.484 30.6963C136.841 30.5254 137.141 30.2739 137.385 29.9419C137.634 29.605 137.822 29.1924 137.949 28.7041C138.076 28.2109 138.14 27.6445 138.14 27.0049ZM148.123 30.8501V32H142.791V30.8501H148.123ZM143.069 21.3359V32H141.655V21.3359H143.069Z" fill="#142A31"/>
<defs>
<filter id="filter0_d_73_2" x="0" y="0" width="189" height="56" filterUnits="userSpaceOnUse" color-interpolation-filters="sRGB">
<feFlood flood-opacity="0" result="BackgroundImageFix"/>
<feColorMatrix in="SourceAlpha" type="matrix" values="0 0 0 0 0 0 0 0 0 0 0 0 0 0 0 0 0 0 127 0" result="hardAlpha"/>
<feOffset dy="1"/>
<feGaussianBlur stdDeviation="1"/>
<feColorMatrix type="matrix" values="0 0 0 0 0.0627451 0 0 0 0 0.0941176 0 0 0 0 0.156863 0 0 0 0.05 0"/>
<feBlend mode="normal" in2="BackgroundImageFix" result="effect1_dropShadow_73_2"/>
<feBlend mode="normal" in="SourceGraphic" in2="effect1_dropShadow_73_2" result="shape"/>
</filter>
</defs>
</svg>
