<svg width="56" height="56" viewBox="0 0 56 56" fill="none" xmlns="http://www.w3.org/2000/svg">
<rect x="4" y="4" width="48" height="48" fill="#FDB0AB" stroke="#FBDBD8" stroke-width="8"/>
<path d="M26.0547 26.6016H27.0859C27.5911 26.6016 28.0078 26.5182 28.3359 26.3516C28.6693 26.1797 28.9167 25.9479 29.0781 25.6562C29.2448 25.3594 29.3281 25.026 29.3281 24.6562C29.3281 24.2188 29.2552 23.8516 29.1094 23.5547C28.9635 23.2578 28.7448 23.0339 28.4531 22.8828C28.1615 22.7318 27.7917 22.6562 27.3438 22.6562C26.9375 22.6562 26.5781 22.737 26.2656 22.8984C25.9583 23.0547 25.7161 23.2786 25.5391 23.5703C25.3672 23.862 25.2812 24.2057 25.2812 24.6016H23.8359C23.8359 24.0234 23.9818 23.4974 24.2734 23.0234C24.5651 22.5495 24.974 22.1719 25.5 21.8906C26.0312 21.6094 26.6458 21.4688 27.3438 21.4688C28.0312 21.4688 28.6328 21.5911 29.1484 21.8359C29.6641 22.0755 30.0651 22.4349 30.3516 22.9141C30.638 23.388 30.7812 23.9792 30.7812 24.6875C30.7812 24.974 30.7135 25.2812 30.5781 25.6094C30.4479 25.9323 30.2422 26.2344 29.9609 26.5156C29.6849 26.7969 29.3255 27.0286 28.8828 27.2109C28.4401 27.388 27.9089 27.4766 27.2891 27.4766H26.0547V26.6016ZM26.0547 27.7891V26.9219H27.2891C28.013 26.9219 28.612 27.0078 29.0859 27.1797C29.5599 27.3516 29.9323 27.5807 30.2031 27.8672C30.4792 28.1536 30.6719 28.4688 30.7812 28.8125C30.8958 29.151 30.9531 29.4896 30.9531 29.8281C30.9531 30.3594 30.862 30.8307 30.6797 31.2422C30.5026 31.6536 30.25 32.0026 29.9219 32.2891C29.599 32.5755 29.2188 32.7917 28.7812 32.9375C28.3438 33.0833 27.8672 33.1562 27.3516 33.1562C26.8568 33.1562 26.3906 33.0859 25.9531 32.9453C25.5208 32.8047 25.138 32.6016 24.8047 32.3359C24.4714 32.0651 24.2109 31.7344 24.0234 31.3438C23.8359 30.9479 23.7422 30.4974 23.7422 29.9922H25.1875C25.1875 30.388 25.2734 30.7344 25.4453 31.0312C25.6224 31.3281 25.8724 31.5599 26.1953 31.7266C26.5234 31.888 26.9089 31.9688 27.3516 31.9688C27.7943 31.9688 28.1745 31.8932 28.4922 31.7422C28.8151 31.5859 29.0625 31.3516 29.2344 31.0391C29.4115 30.7266 29.5 30.3333 29.5 29.8594C29.5 29.3854 29.401 28.9974 29.2031 28.6953C29.0052 28.388 28.724 28.1615 28.3594 28.0156C28 27.8646 27.5755 27.7891 27.0859 27.7891H26.0547Z" fill="#142A31"/>
</svg>
