<svg width="56" height="56" viewBox="0 0 56 56" fill="none" xmlns="http://www.w3.org/2000/svg">
<rect x="4" y="4" width="48" height="48" fill="#FDB0AB" stroke="#FBDBD8" stroke-width="8"/>
<path d="M31.8984 31.8125V33H24.4531V31.9609L28.1797 27.8125C28.638 27.3021 28.9922 26.8698 29.2422 26.5156C29.4974 26.1562 29.6745 25.8359 29.7734 25.5547C29.8776 25.2682 29.9297 24.9766 29.9297 24.6797C29.9297 24.3047 29.8516 23.9661 29.6953 23.6641C29.5443 23.3568 29.3203 23.112 29.0234 22.9297C28.7266 22.7474 28.3672 22.6562 27.9453 22.6562C27.4401 22.6562 27.0182 22.7552 26.6797 22.9531C26.3464 23.1458 26.0964 23.4167 25.9297 23.7656C25.763 24.1146 25.6797 24.5156 25.6797 24.9688H24.2344C24.2344 24.3281 24.375 23.7422 24.6562 23.2109C24.9375 22.6797 25.3542 22.2578 25.9062 21.9453C26.4583 21.6276 27.138 21.4688 27.9453 21.4688C28.6641 21.4688 29.2786 21.5964 29.7891 21.8516C30.2995 22.1016 30.6901 22.4557 30.9609 22.9141C31.237 23.3672 31.375 23.8984 31.375 24.5078C31.375 24.8411 31.3177 25.1797 31.2031 25.5234C31.0938 25.862 30.9401 26.2005 30.7422 26.5391C30.5495 26.8776 30.3229 27.2109 30.0625 27.5391C29.8073 27.8672 29.5339 28.1901 29.2422 28.5078L26.1953 31.8125H31.8984Z" fill="#142A31"/>
</svg>
